<?xml version="1.0" standalone="no"?>
<!DOCTYPE svg PUBLIC "-//W3C//DTD SVG 20010904//EN"
 "http://www.w3.org/TR/2001/REC-SVG-20010904/DTD/svg10.dtd">
<svg version="1.0" xmlns="http://www.w3.org/2000/svg"
 width="782.000000pt" height="192.000000pt" viewBox="0 0 782.000000 192.000000"
 preserveAspectRatio="xMidYMid meet">

<g transform="translate(0.000000,192.000000) scale(0.100000,-0.100000)"
fill="#000000" stroke="none">
<path d="M341 1905 c-222 -50 -349 -220 -336 -450 7 -124 65 -245 147 -307
163 -124 405 -127 542 -7 25 22 46 45 46 50 0 4 -32 33 -72 63 l-72 54 -38
-33 c-65 -59 -153 -68 -238 -25 -123 63 -164 269 -79 395 70 103 221 132 316
59 l32 -24 65 56 c36 30 66 59 66 64 0 17 -76 71 -126 89 -71 27 -175 34 -253
16z"/>
<path d="M2654 1910 c-100 -20 -168 -66 -209 -142 -24 -43 -29 -64 -28 -120 1
-116 56 -174 215 -227 114 -38 155 -62 164 -96 10 -41 -10 -71 -60 -90 -62
-24 -123 -14 -179 29 l-43 33 -64 -70 -64 -70 34 -29 c58 -48 133 -71 235 -72
50 0 109 5 132 12 71 21 134 71 166 132 26 49 28 63 25 131 -2 60 -8 83 -28
111 -32 48 -90 84 -175 110 -108 32 -152 56 -163 86 -33 95 126 147 220 72
l26 -20 62 71 c68 77 68 76 0 113 -59 33 -192 50 -266 36z"/>
<path d="M1062 1783 c-28 -65 -105 -243 -171 -395 -66 -153 -123 -287 -126
-298 -6 -19 -2 -20 93 -20 l99 0 34 88 35 87 158 0 159 0 35 -87 36 -88 103 0
c57 0 103 1 103 3 0 1 -80 187 -179 412 l-178 410 -75 3 -75 3 -51 -118z m170
-260 l45 -118 -90 -3 c-49 -1 -92 0 -95 2 -6 7 80 236 89 236 3 0 26 -53 51
-117z"/>
<path d="M1707 1894 c-4 -4 -7 -191 -7 -416 l0 -408 90 0 90 0 0 165 0 165 44
0 45 0 86 -165 86 -165 110 0 110 0 -12 23 c-7 12 -50 83 -95 158 -46 75 -86
143 -89 151 -4 11 5 20 32 31 126 50 172 232 90 354 -39 57 -99 89 -189 102
-79 11 -381 15 -391 5z m365 -165 c26 -7 43 -19 53 -39 22 -43 18 -68 -14
-101 -29 -28 -32 -29 -130 -29 l-101 0 0 90 0 90 78 0 c42 0 94 -5 114 -11z"/>
<path d="M3460 1485 l0 -415 90 0 90 0 0 165 0 165 44 0 43 0 61 -117 c34 -65
72 -138 86 -163 l24 -45 112 -3 112 -3 -20 33 c-11 18 -58 96 -105 173 l-85
140 47 21 c25 12 56 32 68 45 48 52 70 147 53 224 -23 105 -99 166 -226 185
-38 5 -142 10 -231 10 l-163 0 0 -415z m405 225 c34 -34 37 -92 6 -123 -19
-19 -36 -23 -126 -27 l-105 -5 0 93 0 94 100 -4 c91 -3 102 -5 125 -28z"/>
<path d="M4215 1887 c-3 -6 -4 -192 -3 -412 l3 -400 284 -3 c221 -2 286 1 293
10 4 7 8 46 7 86 l-2 72 -198 0 -199 0 0 85 0 85 175 0 175 0 0 84 c0 61 -3
84 -12 83 -7 0 -86 1 -175 1 l-163 2 0 70 0 70 178 1 c97 1 180 1 185 0 4 0 7
39 7 89 l0 90 -275 0 c-212 0 -277 -3 -280 -13z"/>
<path d="M4940 1485 l0 -415 90 0 90 0 0 292 0 292 59 -94 c32 -52 112 -183
177 -290 l120 -195 114 -3 c84 -2 116 1 122 10 9 15 9 775 0 800 -6 14 -21 16
-92 15 l-85 -2 -5 -278 -5 -278 -170 278 -170 278 -123 3 -122 3 0 -416z"/>
<path d="M5807 1881 c-2 -10 -4 -46 -3 -82 l1 -64 118 -3 117 -3 0 -329 0
-330 90 0 90 0 0 330 0 329 118 3 117 3 3 68 c2 43 -2 74 -9 83 -10 12 -64 14
-324 14 -291 -1 -313 -2 -318 -19z"/>
<path d="M6695 1867 c-7 -18 -86 -200 -174 -404 -89 -205 -161 -377 -161 -383
0 -6 38 -10 98 -10 l97 0 35 90 35 90 156 0 156 0 37 -90 38 -90 104 0 103 0
-18 43 c-59 134 -321 736 -332 760 -12 26 -15 27 -86 27 l-74 0 -14 -33z m134
-345 c23 -56 41 -107 41 -112 0 -6 -38 -10 -90 -10 -62 0 -90 4 -90 12 0 24
84 228 91 221 4 -5 26 -54 48 -111z"/>
<path d="M7307 1894 c-4 -4 -7 -191 -7 -416 l0 -408 260 0 260 0 0 85 0 85
-165 0 -165 0 -2 328 -3 327 -85 3 c-47 1 -89 0 -93 -4z"/>
<path d="M2978 613 l-38 -4 0 -295 0 -294 40 0 40 0 0 115 0 115 58 0 c163 0
262 109 222 243 -24 83 -84 119 -205 121 -44 1 -97 1 -117 -1z m218 -94 c51
-52 39 -151 -24 -182 -38 -20 -87 -28 -122 -20 l-30 6 0 114 0 115 75 -4 c64
-3 79 -7 101 -29z"/>
<path d="M3918 613 c-20 -2 -39 -11 -42 -19 -3 -8 -5 -139 -3 -292 l2 -277 38
-3 37 -3 0 125 0 125 28 3 c45 5 103 -8 124 -30 12 -12 32 -62 47 -119 l26
-98 44 -3 c37 -3 43 -1 37 13 -3 9 -15 53 -27 98 -23 91 -38 124 -68 151 l-20
18 32 22 c47 32 69 80 64 144 -7 99 -66 143 -200 146 -45 2 -98 1 -119 -1z
m218 -96 c43 -50 24 -143 -33 -165 -34 -13 -44 -15 -105 -13 l-48 1 0 106 0
106 81 -4 c74 -3 83 -6 105 -31z"/>
<path d="M4634 601 c-60 -27 -89 -73 -89 -141 0 -79 25 -110 133 -161 48 -23
95 -48 104 -57 41 -35 27 -126 -22 -152 -31 -16 -130 -14 -174 5 -21 9 -39 15
-41 13 -1 -2 -6 -17 -9 -34 -6 -27 -3 -32 21 -44 47 -22 167 -25 218 -6 110
43 150 171 78 257 -15 17 -63 49 -107 70 -84 41 -126 77 -126 109 0 29 19 65
43 79 25 16 111 17 151 1 34 -13 34 -12 42 27 5 27 3 31 -27 42 -50 17 -148
13 -195 -8z"/>
<path d="M3467 538 c-14 -40 -59 -173 -101 -296 l-75 -223 41 3 41 3 30 88 29
88 106 -3 105 -3 31 -87 31 -88 42 0 42 0 -99 291 c-55 161 -100 293 -100 295
0 2 -22 4 -49 4 l-49 0 -25 -72z m112 -139 c23 -69 41 -128 41 -130 0 -2 -38
-3 -84 -1 l-83 3 41 129 c22 70 42 127 43 126 0 0 20 -58 42 -127z"/>
<path d="M4350 315 l0 -295 40 0 40 0 0 295 0 295 -40 0 -40 0 0 -295z"/>
</g>
</svg>
